<svg width="146" height="60" viewBox="0 0 146 60" fill="none" xmlns="http://www.w3.org/2000/svg">
<path d="M43.9781 30.3595C43.9201 31.3255 43.6646 32.1985 43.2815 33.0365C41.447 37.0986 38.8115 40.4507 34.8523 42.6272C32.8901 43.698 30.8118 44.408 28.5826 44.6059C22.9747 45.118 17.959 43.6515 13.8024 39.7989C10.7141 36.9356 8.86798 33.3275 8.20618 29.1374C7.06835 22.0025 10.7605 14.5651 16.3103 11.0267C18.7485 9.46709 21.4189 8.53596 24.2751 8.14022C30.6841 7.26728 38.8695 10.4564 42.5616 18.0917C43.1538 19.3139 43.653 20.5825 43.9665 21.9094C43.9781 21.9676 43.9897 22.0374 44.0013 22.1422H43.6647C40.4602 22.1422 37.2557 22.1422 34.0512 22.1422C33.877 22.1422 33.7261 22.1422 33.61 21.9443C31.9032 19.0345 29.3141 17.7426 25.9819 17.7309C21.5234 17.7077 18.3422 21.1529 17.7965 25.0054C17.3088 28.4739 18.435 31.3023 21.1287 33.4904C22.2084 34.3634 23.4972 34.7707 24.8673 34.9802C26.5508 35.2363 28.1646 35.1665 29.7204 34.4099C31.462 33.5719 32.7392 32.245 33.7261 30.6039C33.819 30.441 33.9002 30.3362 34.1208 30.3362C37.3369 30.3362 40.553 30.3362 43.7691 30.3362C43.8272 30.3362 43.8736 30.3362 43.9665 30.3362L43.9781 30.3595Z" fill="#001D38"/>
<path d="M61.8352 17.1137H62.2067C65.0978 17.1137 68.0004 17.1137 70.8914 17.1137C71.2281 17.1137 71.3326 17.2068 71.321 17.5444C71.2977 18.2427 71.321 18.9294 71.321 19.7092C71.6925 19.395 72.006 19.1273 72.3079 18.8712C73.5386 17.8237 74.9086 17.0904 76.5341 16.8809C78.3337 16.6481 80.0869 16.7994 81.8285 17.3814C84.7427 18.3591 87.0997 20.105 88.9109 22.5609C90.3738 24.5512 91.2794 26.7975 91.4652 29.265C91.7671 33.234 90.7105 36.7723 88.0053 39.752C86.0431 41.9052 83.6746 43.43 80.8068 44.0352C79.1232 44.396 77.4049 44.5822 75.6865 44.0934C74.1423 43.6511 72.8535 42.7782 71.6809 41.7074C71.6112 41.6375 71.53 41.5677 71.4603 41.5095C71.4487 41.4978 71.4255 41.4978 71.3326 41.4629V41.8936C71.3326 44.8965 71.3326 47.8994 71.3326 50.8907C71.3326 51.1855 71.1817 51.333 70.8798 51.333C68.0004 51.333 65.1326 51.333 62.2532 51.333H61.8468V17.1137H61.8352ZM76.685 35.9576C79.7154 35.8877 81.933 33.4552 81.9562 30.394C81.9794 27.6588 79.4135 25.2728 76.5109 25.2728C73.6547 25.2728 71.3326 27.6705 71.3326 30.5803C71.3326 34.2117 74.4558 35.9459 76.685 35.9459V35.9576Z" fill="#001D38"/>
<path d="M128.259 19.7095C128.259 19.1858 128.259 18.7551 128.259 18.3128C128.259 17.9869 128.259 17.6727 128.259 17.3468C128.259 17.1373 128.328 17.0674 128.526 17.0791C128.596 17.0791 128.654 17.0791 128.723 17.0791C131.661 17.0791 134.598 17.0791 137.547 17.0791C137.849 17.0791 138 17.2265 138 17.5213C138 26.2391 138 34.9452 138 43.663V44.0587H128.27V41.5912C128.096 41.7425 128.003 41.8124 127.911 41.8938C126.657 42.9996 125.263 43.8492 123.626 44.2333C122.581 44.4777 121.536 44.4196 120.491 44.3148C118.494 44.1169 116.602 43.5233 114.86 42.4991C112.109 40.8812 110.216 38.5301 109.101 35.5738C107.197 30.5456 108.149 25.9481 111.412 21.7813C113.177 19.5233 115.569 18.1149 118.297 17.37C120.166 16.8579 122.094 16.6833 124.021 17.1954C125.542 17.6028 126.866 18.3361 127.969 19.4535C128.038 19.5233 128.108 19.5815 128.247 19.6979L128.259 19.7095ZM117.496 30.7086C117.496 33.5136 120.004 36.0393 122.825 36.0393C125.855 36.0393 128.259 33.6766 128.259 30.6853C128.259 27.7289 125.879 25.308 122.941 25.3429C120.12 25.3778 117.589 27.4147 117.507 30.7086H117.496Z" fill="#001D38"/>
<path d="M104.608 44.0817H95.134C95.134 43.942 95.1108 43.8256 95.1108 43.7092C95.1108 32.0002 95.1108 20.2795 95.1108 8.57046C95.1108 8.24456 95.2037 8.16309 95.5172 8.16309C98.4198 8.17473 101.334 8.16309 104.237 8.16309C104.353 8.16309 104.469 8.16309 104.608 8.18636V44.0817Z" fill="#001D38"/>
<path d="M57.1213 44.0937H56.7266C53.8704 44.0937 51.0026 44.0937 48.1464 44.0937C47.8097 44.0937 47.7168 44.0122 47.7168 43.6747C47.7284 34.9453 47.74 26.2042 47.74 17.4748C47.74 17.2071 47.7749 17.0791 48.0883 17.0791C50.991 17.0907 53.9052 17.0791 56.8078 17.0791C56.9007 17.0791 57.0052 17.0907 57.1213 17.1024V44.0937Z" fill="#001D38"/>
<path d="M47.74 8.29199H57.1445C57.1445 8.42002 57.1677 8.52478 57.1677 8.62953C57.1677 10.3754 57.1677 12.1329 57.1677 13.8788C57.1677 14.1931 57.0748 14.2629 56.773 14.2629C53.8936 14.2629 51.0026 14.2629 48.1232 14.2629C47.8213 14.2629 47.74 14.1698 47.74 13.8672C47.7516 12.1329 47.74 10.387 47.74 8.65281V8.29199Z" fill="#001D38"/>
</svg>
