<svg width="146" height="41" viewBox="0 0 146 41" fill="none" xmlns="http://www.w3.org/2000/svg">
<path d="M138 29.6207C137.791 29.7388 137.816 29.9665 137.749 30.1435C137.154 31.7288 135.43 32.6732 133.814 32.3022C131.997 31.889 130.883 30.3375 131.067 28.4908C131.226 26.8634 132.667 25.5143 134.308 25.4468C136.083 25.3709 137.582 26.5598 137.891 28.28C137.908 28.3643 137.891 28.4655 137.992 28.5161V29.6207H138Z" fill="#001D38"/>
<path d="M8.00838 20.025C8.00838 16.2389 8.00837 12.4613 8 8.67522C8 8.24517 8.06701 8.08496 8.55265 8.08496C11.3409 8.11869 14.1207 8.07653 16.9089 8.12712C19.3455 8.17772 21.6564 8.72581 23.6911 10.1593C25.9099 11.7277 27.0989 13.9538 27.5511 16.5762C27.9948 19.1565 27.9279 21.7367 27.1743 24.258C25.9184 28.4656 23.0296 30.8604 18.7929 31.7036C17.696 31.9228 16.5824 31.9819 15.4604 31.9819C13.1662 31.9819 10.8803 31.965 8.58607 31.9903C8.1423 31.9903 8.00001 31.8891 8.00838 31.4254C8.02513 27.6224 8.01676 23.8195 8.01676 20.0166L8.00838 20.025ZM14.3551 19.9997C14.3551 22.074 14.3551 24.1483 14.3551 26.2311C14.3551 26.4335 14.2715 26.6864 14.6483 26.6611C15.3265 26.6274 16.013 26.6864 16.6828 26.619C18.6673 26.4082 20.0907 25.3963 20.702 23.4653C21.4472 21.138 21.4722 18.7686 20.7605 16.4244C20.2665 14.797 19.153 13.7936 17.4784 13.4563C16.5908 13.2792 15.6948 13.3298 14.7989 13.3045C14.4305 13.2961 14.3467 13.4141 14.3467 13.7683C14.3635 15.8426 14.3467 17.9169 14.3467 19.9997H14.3551Z" fill="#001D38"/>
<path d="M74.2641 23.1029C74.239 24.7135 74.0382 26.2819 73.36 27.7575C72.0538 30.5739 69.7595 31.9652 66.7535 32.2434C64.9115 32.4205 63.0946 32.2687 61.4032 31.4087C59.2514 30.3125 57.9116 28.5333 57.3171 26.2228C56.7142 23.8703 56.7228 21.4924 57.5015 19.1651C58.5314 16.0957 60.7418 14.4262 63.8984 13.9624C65.5479 13.7179 67.1974 13.7684 68.78 14.3334C71.9282 15.4465 73.5525 17.8075 74.1051 21.0117C74.1553 21.2984 74.1889 21.5936 74.2141 21.8887C74.2475 22.2934 74.2558 22.6982 74.2725 23.0945L74.2641 23.1029ZM63.0024 23.0355C63.061 24.1316 63.0862 25.2278 63.5133 26.265C63.9319 27.2769 64.6186 27.7406 65.6652 27.7238C66.6532 27.7069 67.39 27.2094 67.6998 26.1891C68.3194 24.1654 68.3446 22.1079 67.7333 20.0758C67.39 18.9374 66.695 18.4652 65.5982 18.4652C64.4929 18.4652 63.8314 18.9543 63.4295 20.0505C63.0778 21.0117 63.0527 22.0236 63.0024 23.027V23.0355Z" fill="#001D38"/>
<path d="M44.2472 26.9735C44.5402 28.2467 44.8081 29.4947 45.1179 30.7342C45.1932 31.0294 45.0342 31.08 44.85 31.1643C43.6192 31.7714 42.3129 32.0918 40.9481 32.2014C39.1563 32.3448 37.3644 32.4123 35.5977 31.94C32.5416 31.139 30.5907 29.2164 29.8706 26.1302C29.3096 23.7271 29.3766 21.3154 30.1804 18.9629C31.1852 16.02 33.3287 14.4179 36.3513 13.9625C37.9757 13.718 39.6001 13.777 41.191 14.2492C44.0546 15.0925 45.6455 17.0656 46.1479 19.9579C46.4074 21.4335 46.2986 22.926 46.332 24.4101C46.332 24.8064 46.0892 24.7389 45.8631 24.7389C42.6395 24.7389 39.4075 24.7474 36.1839 24.7305C35.6815 24.7305 35.5727 24.8317 35.6815 25.3376C36.0248 26.9229 37.2975 27.8588 39.2401 27.901C40.1025 27.9179 40.9565 27.8504 41.8106 27.6986C42.6395 27.5469 43.435 27.277 44.2472 26.965V26.9735ZM38.3525 20.8517C39.0642 20.8517 39.776 20.8517 40.4877 20.8517C40.6216 20.8517 40.856 20.936 40.8393 20.6493C40.7639 19.5953 40.2531 18.4822 39.0474 18.1534C37.3812 17.7065 35.9327 18.7689 35.7736 20.5312C35.7485 20.8432 35.8825 20.8517 36.1086 20.8517C36.8622 20.8517 37.6073 20.8517 38.3609 20.8517H38.3525Z" fill="#001D38"/>
<path d="M127.542 26.9643C127.844 28.2545 128.137 29.5362 128.43 30.8179C128.489 31.0793 128.262 31.1046 128.112 31.1805C126.872 31.8129 125.533 32.108 124.16 32.2176C122.276 32.361 120.4 32.4116 118.558 31.855C115.904 31.054 114.112 29.3591 113.333 26.6945C112.563 24.0552 112.63 21.3907 113.559 18.802C114.581 15.9603 116.699 14.4256 119.63 13.9872C121.129 13.7595 122.627 13.8017 124.101 14.1642C127.274 14.9484 129.25 17.2842 129.543 20.539C129.652 21.787 129.594 23.0349 129.636 24.2829C129.652 24.6708 129.527 24.772 129.15 24.772C125.943 24.7551 122.736 24.7635 119.529 24.7635C118.859 24.7635 118.851 24.772 119.002 25.4381C119.303 26.7788 120.409 27.7232 121.907 27.8666C123.841 28.0521 125.7 27.7401 127.542 26.9728V26.9643ZM121.614 20.851C122.309 20.851 123.012 20.8257 123.707 20.8594C124.143 20.8847 124.185 20.7076 124.126 20.3451C123.892 18.9116 122.954 18.0515 121.623 18.0599C120.274 18.0684 119.295 18.9875 119.094 20.4125C119.052 20.7329 119.094 20.8763 119.471 20.8594C120.183 20.8257 120.902 20.851 121.614 20.851Z" fill="#001D38"/>
<path d="M100.916 23.1195C100.916 21.8378 100.899 20.5477 100.924 19.266C100.924 18.8697 100.807 18.7769 100.43 18.7854C99.9029 18.7854 99.1913 19.0299 98.9066 18.6842C98.6471 18.3553 98.8228 17.6639 98.8228 17.1411C98.8228 16.281 98.8312 15.4125 98.8144 14.5524C98.8144 14.232 98.9065 14.1392 99.2163 14.1561C99.6015 14.1814 99.9867 14.1392 100.372 14.173C100.782 14.2067 100.941 14.1055 100.933 13.6417C100.899 12.4528 100.933 11.2554 100.908 10.058C100.899 9.67858 100.983 9.51837 101.385 9.45934C103.143 9.19795 104.893 8.91125 106.635 8.60769C106.97 8.54866 106.987 8.66672 106.987 8.92811C106.987 10.5049 107.003 12.0902 106.97 13.667C106.97 14.0971 107.095 14.1814 107.489 14.173C108.46 14.1392 109.432 14.173 110.403 14.1561C110.687 14.1561 110.788 14.2235 110.78 14.5187C110.763 15.8257 110.763 17.1242 110.78 18.4312C110.78 18.7264 110.671 18.8022 110.394 18.7938C109.39 18.7769 108.376 18.7938 107.372 18.7854C107.07 18.7854 106.97 18.8528 106.97 19.1733C106.987 21.4162 106.97 23.6508 106.978 25.8937C106.978 26.8719 107.548 27.3862 108.536 27.4115C109.415 27.4284 110.244 27.2176 111.056 26.9393C111.374 26.8297 111.5 26.8129 111.491 27.226C111.466 28.474 111.475 29.722 111.491 30.9699C111.491 31.2229 111.424 31.3578 111.173 31.459C109.08 32.3191 106.92 32.5383 104.717 32.1251C102.591 31.7288 101.36 30.2869 101.042 27.9681C101 27.6982 100.95 27.42 100.941 27.1501C100.933 25.8094 100.941 24.4687 100.941 23.128C100.933 23.128 100.924 23.128 100.908 23.128L100.916 23.1195Z" fill="#001D38"/>
<path d="M93.1289 8.55664C93.1289 10.2684 93.1456 11.938 93.1205 13.6075C93.1121 14.0713 93.2295 14.1894 93.69 14.1725C94.6445 14.1303 95.599 14.1725 96.5451 14.1556C96.8884 14.1472 96.9722 14.2568 96.9722 14.5941C96.9554 15.8421 96.9554 17.09 96.9722 18.338C96.9722 18.6922 96.8968 18.8187 96.52 18.8018C95.5152 18.7765 94.5022 18.8018 93.4974 18.7849C93.2127 18.7849 93.1205 18.8524 93.1289 19.1475C93.1456 21.3905 93.1289 23.625 93.1372 25.868C93.1372 26.8883 93.6984 27.3942 94.7282 27.4111C95.2306 27.4111 95.7163 27.3521 96.1935 27.2256C96.654 27.1075 97.1061 26.9726 97.5834 26.8461C97.6839 26.9979 97.6337 27.1581 97.6337 27.3099C97.6337 28.3977 97.5835 29.477 97.6588 30.5563C97.7007 31.2056 97.441 31.4248 96.8884 31.6188C95.0379 32.2849 93.1372 32.4704 91.2198 32.1584C88.7916 31.7621 87.519 30.3624 87.1925 27.9086C87.1004 27.2171 87.0668 26.5173 87.0668 25.8258C87.0668 23.625 87.0668 21.4158 87.0668 19.215C87.0668 18.8777 86.983 18.7596 86.6397 18.7849C86.2546 18.8102 85.8695 18.7681 85.4844 18.8018C85.0992 18.8355 84.94 18.7428 84.9568 18.3043C84.9902 17.0563 84.9735 15.8084 84.9568 14.5604C84.9568 14.2568 85.0239 14.1388 85.3421 14.1556C85.7775 14.1809 86.2211 14.1472 86.6565 14.1725C86.9831 14.1894 87.0584 14.0713 87.05 13.7593C87.0333 12.5451 87.05 11.3308 87.0333 10.125C87.0333 9.75402 87.0919 9.5938 87.5106 9.52635C89.3526 9.23965 91.1863 8.89393 93.1037 8.55664H93.1289Z" fill="#001D38"/>
<path d="M48.6012 19.9658C48.6012 16.146 48.6011 12.3262 48.5928 8.50644C48.5928 8.08483 48.7016 7.99208 49.1119 8.00051C50.7949 8.02581 52.4862 8.01738 54.1692 8.00051C54.5208 8.00051 54.6297 8.0764 54.6297 8.44742C54.6213 16.146 54.6213 23.8362 54.6297 31.5348C54.6297 31.8974 54.5292 31.9986 54.1692 31.9986C52.4862 31.9817 50.7949 31.9817 49.1119 31.9986C48.7016 31.9986 48.5928 31.9059 48.5928 31.4842C48.6095 27.6476 48.6012 23.8109 48.6012 19.9658Z" fill="#001D38"/>
<path d="M76.6086 23.0607C76.6086 20.2527 76.6169 17.4448 76.6002 14.6369C76.6002 14.249 76.7007 14.1562 77.0859 14.1562C78.7856 14.1815 80.4938 14.1731 82.1935 14.1562C82.5201 14.1562 82.6373 14.2237 82.6289 14.5779C82.6206 20.2274 82.6206 25.8855 82.6289 31.5351C82.6289 31.9061 82.52 31.9988 82.1684 31.9904C80.4854 31.9735 78.8024 31.9651 77.111 31.9904C76.7007 31.9904 76.5918 31.8892 76.5918 31.476C76.6085 28.6681 76.6002 25.8602 76.6002 23.0522L76.6086 23.0607Z" fill="#001D38"/>
<path d="M79.6064 12.0311C78.7439 12.0311 77.8815 12.0227 77.0274 12.0311C76.7427 12.0311 76.6004 11.9889 76.6087 11.6516C76.6339 10.547 76.6255 9.45083 76.6087 8.34621C76.6087 8.09324 76.6507 7.99205 76.9354 8.00048C78.7105 8.01735 80.4855 8.01735 82.2689 8.00048C82.562 8.00048 82.6457 8.08481 82.6373 8.3715C82.6206 9.45083 82.6122 10.5386 82.6373 11.6179C82.6373 11.9805 82.5119 12.0395 82.1937 12.0395C81.3313 12.0227 80.4688 12.0395 79.6147 12.0395L79.6064 12.0311Z" fill="#001D38"/>
</svg>
