<svg width="146" height="55" viewBox="0 0 146 55" fill="none" xmlns="http://www.w3.org/2000/svg">
<g clip-path="url(#clip0_837_138247)">
<path d="M62.4961 26.7942L61.9647 24.8014H58.9089L58.3601 26.7942H54.0854L58.0174 15.1094H63.1162L67.0481 26.7942H62.4981H62.4961ZM60.7786 19.4919C60.6072 18.8559 60.4686 17.9463 60.4686 17.9463C60.4686 17.9463 60.3145 18.8578 60.1432 19.4919L59.3017 22.4463H61.568L60.7786 19.4919Z" fill="#001D38"/>
<path d="M73.1406 17.979V19.8696H77.1053V22.8414H73.1406V26.7942H69.0027V15.1094H77.7407V17.979H73.1406Z" fill="#001D38"/>
<path d="M86.8234 26.7945C85.7759 23.8728 85.3292 22.8765 84.9172 22.6876H83.9563V26.7945H79.853V15.1097C81.586 15.0577 83.785 14.9902 85.3466 14.9902C88.7278 14.9902 90.634 16.1755 90.634 18.3243C90.634 19.7505 89.5018 20.9878 88.2657 21.3829C88.9357 21.6584 89.6386 22.7242 91.6642 26.7945H86.8234ZM84.6611 17.5496H83.9563V20.3325H85.5006C85.982 20.0242 86.2727 19.5077 86.2727 18.8543C86.2727 18.0989 85.672 17.5477 84.6591 17.5477L84.6611 17.5496Z" fill="#001D38"/>
<path d="M93.5703 26.7942V15.1094H97.8277V26.7942H93.5703Z" fill="#001D38"/>
<path d="M110.48 26.1931C109.415 26.6903 107.889 26.9832 106.258 26.9832C102.291 26.9832 100.181 24.4566 100.181 21.3133C100.181 17.8077 102.601 14.9053 107.012 14.9053C108.455 14.9053 109.828 15.2483 110.756 15.6607L110.242 18.7713C109.417 18.4456 108.335 18.1873 107.374 18.1873C105.744 18.1873 104.559 19.2704 104.559 20.8508C104.559 22.5699 105.726 23.6684 107.444 23.6684C108.611 23.6684 109.777 23.4101 110.654 23.0151L110.482 26.1931H110.48Z" fill="#001D38"/>
<path d="M120.095 26.7942L119.563 24.8014H116.507L115.959 26.7942H111.684L115.616 15.1094H120.715L124.646 26.7942H120.096H120.095ZM118.377 19.4919C118.206 18.8559 118.067 17.9463 118.067 17.9463C118.067 17.9463 117.913 18.8578 117.742 19.4919L116.9 22.4463H119.166L118.377 19.4919Z" fill="#001D38"/>
<path d="M134.207 26.7941L130.843 22.0339C130.465 21.502 129.949 20.4362 129.949 20.4362C129.949 20.4362 130.086 21.4326 130.103 21.9992L130.257 26.7941H126.601V15.1093H130.394L133.81 19.8002C134.205 20.3321 134.686 21.3459 134.686 21.3459C134.686 21.3459 134.532 20.2127 134.515 19.6441L134.361 15.1074H138V26.7922H134.207V26.7941Z" fill="#001D38"/>
<path d="M59.5405 32.8268C58.9263 32.5512 58.2254 32.3373 57.588 32.3373C56.9507 32.3373 56.5117 32.6765 56.5117 33.1891C56.5117 33.7769 56.8737 34.0795 57.8268 34.6673C58.8916 35.3187 59.6926 36.0568 59.6926 37.111C59.6926 38.8031 58.2273 39.8554 56.375 39.8554C55.5104 39.8554 54.6227 39.5663 54.022 39.1288L54.3589 37.7008C54.9847 38.1402 55.7992 38.4524 56.5502 38.4524C57.226 38.4524 57.8403 38.0515 57.8403 37.4001C57.8403 36.8239 57.4398 36.4731 56.4019 35.8333C55.4372 35.2455 54.6863 34.6056 54.6863 33.4647C54.6863 31.9615 56.0014 30.9844 57.6535 30.9844C58.5181 30.9844 59.2806 31.2214 59.8814 31.4989L59.5444 32.8268H59.5405Z" fill="#001D38"/>
<path d="M62.7196 37.1359H62.4944C62.5444 37.874 62.7331 38.6141 63.6843 38.6141C64.3737 38.6141 65.1497 38.3134 65.762 37.9126L65.4866 39.2289C64.9359 39.5661 64.1599 39.8167 63.2203 39.8167C61.5932 39.8167 60.9424 38.6758 60.9424 37.2862C60.9424 35.1817 62.1805 33.0771 64.4353 33.0771C65.6869 33.0771 66.2491 33.7922 66.2491 34.4917C66.2491 35.9198 64.6856 37.1359 62.7196 37.1359ZM64.1465 34.1545C63.2318 34.1545 62.6696 35.5074 62.556 36.1723H62.7562C63.771 36.1723 64.6972 35.4322 64.6972 34.7057C64.6972 34.4416 64.4969 34.1545 64.1465 34.1545Z" fill="#001D38"/>
<path d="M69.0026 37.1359H68.7773C68.8274 37.874 69.0161 38.6141 69.9673 38.6141C70.6566 38.6141 71.4326 38.3134 72.0449 37.9126L71.7696 39.2289C71.2189 39.5661 70.4429 39.8167 69.5032 39.8167C67.8762 39.8167 67.2253 38.6758 67.2253 37.2862C67.2253 35.1817 68.4635 33.0771 70.7182 33.0771C71.9698 33.0771 72.5321 33.7922 72.5321 34.4917C72.5321 35.9198 70.9686 37.1359 69.0026 37.1359ZM70.4294 34.1545C69.5148 34.1545 68.9525 35.5074 68.8389 36.1723H69.0392C70.0539 36.1723 70.9801 35.4322 70.9801 34.7057C70.9801 34.4416 70.7799 34.1545 70.4294 34.1545Z" fill="#001D38"/>
<path d="M78.5782 37.5119C78.5532 37.7123 78.5397 37.8993 78.5397 38.0014C78.5397 38.3772 78.7014 38.5391 79.1405 38.5391L78.9518 39.68C78.7265 39.7436 78.376 39.7918 78.0891 39.7918C77.3882 39.7918 77.1379 39.3794 77.0744 38.5006H77.0243C76.6488 39.3524 75.9595 39.8169 75.1469 39.8169C74.059 39.8169 73.5083 38.8282 73.5083 37.4232C73.5083 35.3303 74.6232 33.1506 76.801 33.1506C77.0128 33.1506 77.3517 33.2142 77.5384 33.2508L77.9004 29.8936H79.5275L78.5763 37.51L78.5782 37.5119ZM76.6873 34.2414C75.6976 34.2414 75.1469 35.92 75.1469 37.111C75.1469 37.8376 75.3472 38.4639 75.8478 38.4639C76.3735 38.4639 76.9627 37.9494 77.1379 36.5984L77.4017 34.3435C77.2015 34.2819 76.9011 34.2433 76.6873 34.2433V34.2414Z" fill="#001D38"/>
<path d="M84.4223 34.6555C83.9717 34.405 83.4576 34.2547 83.032 34.2547C82.5815 34.2547 82.3312 34.5438 82.3312 34.856C82.3312 35.6712 84.4088 36.2975 84.4088 37.7757C84.4088 38.8916 83.4576 39.8167 81.9172 39.8167C81.2028 39.8167 80.577 39.6413 80.0898 39.3156L80.3652 38.0629C80.8408 38.4271 81.4416 38.6391 81.9672 38.6391C82.3677 38.6391 82.7047 38.3635 82.7047 38.0012C82.7047 37.0858 80.7022 36.4729 80.7022 35.0314C80.7022 33.9039 81.6668 33.0771 83.0937 33.0771C83.7445 33.0771 84.2817 33.2525 84.7342 33.478L84.4223 34.6555Z" fill="#001D38"/>
<path d="M95.9869 32.902C95.2495 32.638 94.3733 32.4125 93.4452 32.4125C91.5544 32.4125 90.3163 33.8406 90.3163 35.6194C90.3163 37.3982 91.2309 38.462 92.883 38.462C93.3586 38.462 93.9979 38.3618 94.2963 38.2501L94.433 36.6851H92.831L92.9311 35.4074H96.1236L95.7732 39.3293C95.4728 39.418 95.184 39.4931 94.8085 39.5798C94.2212 39.7186 93.3701 39.8554 92.5556 39.8554C90.0274 39.8554 88.5005 38.2905 88.5005 35.922C88.5005 32.9656 90.503 30.9863 93.5954 30.9863C94.5967 30.9863 95.5729 31.2369 96.2873 31.5125L95.9869 32.9039V32.902Z" fill="#001D38"/>
<path d="M101.444 34.9928C101.218 34.829 100.918 34.7172 100.629 34.7172C100.19 34.7172 99.6164 35.2183 99.4778 36.471L99.1023 39.6779H97.4868L98.0009 35.4303C98.0895 34.7924 98.1126 34.0658 98.1126 33.3258L99.7281 33.1754L99.5394 34.5168H99.6145C100.027 33.5898 100.602 33.0771 101.278 33.0771C101.492 33.0771 101.729 33.1523 101.904 33.239L101.44 34.9928H101.444Z" fill="#001D38"/>
<path d="M104.434 39.8166C102.919 39.8166 102.195 38.6141 102.195 37.2226C102.195 35.1431 103.246 33.0752 105.462 33.0752C107.003 33.0752 107.702 34.2778 107.702 35.6808C107.702 37.7603 106.676 39.8147 104.434 39.8147V39.8166ZM105.199 34.2662C104.209 34.2662 103.858 35.9949 103.858 36.9855C103.858 37.8759 104.059 38.6141 104.71 38.6141C105.697 38.6141 106.036 36.9104 106.036 35.9198C106.036 35.0294 105.836 34.2662 105.199 34.2662Z" fill="#001D38"/>
<path d="M114.511 39.6781C114.272 39.7417 113.91 39.7899 113.609 39.7899C112.945 39.7899 112.67 39.3775 112.62 38.4986H112.556C112.156 39.3505 111.441 39.8149 110.479 39.8149C109.614 39.8149 109.063 39.2021 109.063 38.0862C109.063 37.8973 109.088 37.5716 109.127 37.3712L109.616 33.2373H111.243L110.754 37.0089C110.729 37.2093 110.704 37.51 110.704 37.6487C110.704 38.1749 110.904 38.4755 111.343 38.4755C111.844 38.4755 112.495 37.9995 112.67 36.5965L113.045 33.2392H114.672L114.11 37.5119C114.072 37.6988 114.06 37.8877 114.06 37.9744C114.06 38.3753 114.235 38.5391 114.697 38.5391L114.511 39.68V39.6781Z" fill="#001D38"/>
<path d="M118.365 39.7666C118.077 39.7666 117.815 39.7165 117.614 39.6413L117.277 42.8733H115.65L116.552 35.4072C116.627 34.7943 116.663 34.0793 116.663 33.3277L118.277 33.1774L118.152 34.3665H118.188C118.614 33.5782 119.34 33.0771 120.016 33.0771C121.155 33.0771 121.668 34.1159 121.668 35.4708C121.668 37.6004 120.516 39.7685 118.363 39.7685L118.365 39.7666ZM119.292 34.3665C118.866 34.3665 118.177 34.7808 118.026 36.2089L117.763 38.3635C117.951 38.5004 118.177 38.564 118.477 38.564C119.478 38.564 120.017 36.8854 120.017 35.7194C120.017 35.0179 119.831 34.3665 119.292 34.3665Z" fill="#001D38"/>
<path d="M43.6935 28.0781C43.5818 29.9784 43.1524 31.8227 42.4111 33.5746C41.5696 35.5635 40.3662 37.3519 38.8335 38.886C37.3007 40.4201 35.5138 41.6265 33.5267 42.4668C31.4702 43.3379 29.2828 43.7793 27.03 43.7793C24.7771 43.7793 22.5897 43.3379 20.5333 42.4668C18.5461 41.6246 16.7592 40.4201 15.2265 38.886C13.6938 37.3519 12.4884 35.5635 11.6489 33.5746C10.9095 31.8227 10.4782 29.9784 10.3665 28.0781H8C8.11361 30.2964 8.60847 32.451 9.47303 34.4958C10.4319 36.7661 11.8068 38.807 13.5551 40.5569C15.3054 42.3088 17.3427 43.6829 19.6129 44.6446C21.962 45.639 24.4594 46.144 27.03 46.144C29.6006 46.144 32.098 45.639 34.4471 44.6446C36.7154 43.6829 38.7545 42.3088 40.5029 40.5569C42.2532 38.8051 43.6261 36.7661 44.5869 34.4958C45.4515 32.451 45.9444 30.2964 46.058 28.0781H43.6916H43.6935Z" fill="#001D38"/>
<path d="M11.6488 20.5694C12.4902 18.5805 13.6937 16.792 15.2264 15.2579C16.7591 13.7239 18.546 12.5174 20.5332 11.6772C22.5896 10.806 24.777 10.3647 27.0299 10.3647C29.2827 10.3647 31.4701 10.806 33.5266 11.6772C35.5138 12.5194 37.2987 13.7239 38.8334 15.2579C40.3661 16.792 41.5715 18.5805 42.411 20.5694C43.0676 22.1208 43.4797 23.7474 43.6414 25.4202H46.0136C45.8442 23.4294 45.3647 21.4945 44.5868 19.6482C43.626 17.3779 42.2531 15.337 40.5028 13.587C38.7525 11.8352 36.7153 10.4611 34.447 9.49938C32.0959 8.50493 29.6005 8 27.0299 8C24.4593 8 21.9619 8.50493 19.6128 9.49938C17.3426 10.4611 15.3054 11.8352 13.555 13.587C11.8047 15.3389 10.4318 17.3779 9.47293 19.6482C8.69117 21.4945 8.21364 23.4294 8.04419 25.4202H10.4164C10.5801 23.7474 10.9922 22.1208 11.6468 20.5694H11.6488Z" fill="#001D38"/>
<path d="M24.6789 17.7327V31.3216C24.6789 31.3466 24.6789 31.3717 24.677 31.3968C23.876 30.7608 22.9845 30.3252 22.1064 30.0284V17.7327C22.1064 17.0216 22.6822 16.4453 23.3927 16.4453C23.747 16.4453 24.0705 16.5899 24.3015 16.823C24.5326 17.0562 24.6789 17.3781 24.6789 17.7327Z" fill="#001D38"/>
<path d="M28.2334 15.4046V32.2852C27.9696 32.5569 27.7308 32.8441 27.5132 33.1486C27.2379 33.5359 27.0165 33.9291 26.8432 34.3145C26.5505 33.5822 26.1557 32.925 25.6609 32.3449V15.4046C25.6609 14.6934 26.2366 14.1172 26.9471 14.1172C27.3014 14.1172 27.6249 14.2617 27.856 14.493C28.089 14.7262 28.2334 15.048 28.2334 15.4026V15.4046Z" fill="#001D38"/>
<path d="M31.7205 17.846V30.0974C30.7365 30.4674 29.8796 30.928 29.1479 31.4811V17.846C29.1479 17.1348 29.7237 16.5586 30.4342 16.5586C30.7885 16.5586 31.1101 16.7031 31.343 16.9363C31.576 17.1695 31.7185 17.4914 31.7185 17.846H31.7205Z" fill="#001D38"/>
<path d="M35.0459 21.3362V29.2571C34.1178 29.3978 33.2609 29.5905 32.4734 29.8372V21.3362C32.4734 20.6251 33.0491 20.0488 33.7596 20.0488C34.1139 20.0488 34.4355 20.1934 34.6685 20.4266C34.9015 20.6598 35.044 20.9816 35.044 21.3362H35.0459Z" fill="#001D38"/>
<path d="M20.797 29.6772C19.8939 29.4921 19.0679 29.4343 18.4536 29.4228C18.0185 27.5187 17.1674 23.9475 16.8535 23.6122C16.8535 23.6122 19.2681 23.0359 19.9305 25.973C20.5929 28.9082 20.7931 29.656 20.7931 29.656L20.7989 29.6772H20.797Z" fill="#001D38"/>
<path d="M18.7195 30.6045C18.7195 30.6045 18.6058 38.1207 26.9472 38.8954C26.9472 38.8954 34.9497 38.5081 35.046 30.6045C35.046 30.6045 27.6327 30.8685 26.8818 38.3153C26.8818 38.3153 26.6642 30.9456 18.7175 30.6045H18.7195Z" fill="#001D38"/>
</g>
<defs>
<clipPath id="clip0_837_138247">
<rect width="130" height="38.1437" fill="white" transform="translate(8 8)"/>
</clipPath>
</defs>
</svg>
