<svg width="146" height="29" viewBox="0 0 146 29" fill="none" xmlns="http://www.w3.org/2000/svg">
<path d="M137.594 10.2583C137.327 9.69952 136.923 9.23228 136.427 8.90846C135.931 8.58463 135.362 8.41689 134.784 8.42384C133.17 8.42384 131.742 9.60043 131.742 11.4349C131.742 13.1302 132.839 13.8387 134.105 14.465L134.767 14.7813C135.777 15.281 136.769 15.7554 136.769 17.1345C136.753 17.762 136.509 18.3569 136.091 18.7894C135.674 19.2219 135.116 19.457 134.54 19.4434C133.993 19.4306 133.469 19.1994 133.068 18.7937C132.667 18.3879 132.416 17.8358 132.363 17.242L131.202 17.6026C131.333 18.472 131.747 19.2609 132.369 19.8236C132.991 20.3863 133.779 20.6849 134.587 20.6643C135.032 20.6735 135.475 20.5857 135.889 20.4061C136.304 20.2264 136.681 19.9584 136.999 19.6179C137.316 19.2774 137.569 18.8711 137.741 18.4229C137.913 17.9748 138.001 17.4937 138 17.0079C138 15.1102 136.804 14.3574 135.394 13.6806L134.674 13.339C133.937 12.9784 132.973 12.504 132.973 11.4855C132.98 11.2363 133.033 10.9911 133.128 10.7639C133.222 10.5368 133.357 10.3322 133.524 10.1618C133.691 9.99145 133.887 9.85865 134.102 9.771C134.316 9.68336 134.544 9.64259 134.772 9.65103C135.164 9.63757 135.55 9.75049 135.883 9.97561C136.215 10.2007 136.479 10.528 136.642 10.9162L137.594 10.2583ZM122.054 9.85346H124.701V8.62626H118.217V9.85346H120.841V20.4682H122.054V9.85346ZM104.854 19.241V9.85346H105.731C106.949 9.74021 108.16 10.1512 109.103 10.9984C109.558 11.4458 109.918 11.994 110.162 12.6062C110.405 13.2183 110.525 13.8802 110.514 14.5472C110.521 15.1956 110.405 15.8385 110.172 16.4353C109.939 17.032 109.595 17.5695 109.161 18.0137C108.169 19.0322 107.06 19.241 105.731 19.241H104.854ZM103.641 20.4618H105.661C107.362 20.4618 108.656 20.2278 109.951 18.9689C110.521 18.4145 110.972 17.7306 111.273 16.9655C111.573 16.2005 111.717 15.3728 111.692 14.5409C111.72 13.6914 111.573 12.8459 111.261 12.0665C110.95 11.2871 110.482 10.5936 109.893 10.0369C108.61 8.84766 107.286 8.60728 105.661 8.60728H103.612L103.641 20.4618ZM85.2221 20.4618H86.4296V11.3464L94.8988 20.9995V8.62626H93.6914V17.7923L85.2221 8.12652V20.4618ZM75.1101 15.882H71.4356L73.2931 11.1376L75.1101 15.882ZM75.5861 17.1028L76.8689 20.4618H78.2099L73.3222 8.06326L68.3126 20.4618H69.6361L70.948 17.1028H75.5861ZM59.3673 8.62626H58.1598V20.4682H62.3626V19.2473H59.3673V8.62626ZM46.434 15.4075V20.4682H47.6414V15.4075L51.1998 8.65789H49.8066L47.0377 13.9336L44.2746 8.65789H42.8756L46.434 15.4075ZM30.3778 20.4682H36.0143V19.2473H31.591V14.5978H35.8808V13.3769H31.591V9.85979H36.0143V8.63258H30.3778V20.4682ZM9.3061 8.63258H8L12.1621 21.0818L15.645 11.5551L19.1627 21.0818L23.3248 8.63258H22.0129L19.1627 17.4887L15.645 8L12.1621 17.4887L9.3061 8.63258Z" fill="#001D38"/>
</svg>
